:FULLY-SPECIFIED
:FORCE-ALL-JOINTS-BE-3DOF
:DEGREES
102
root -2.86546 16.4975 -36.2241 2.54471 0.324517 -2.26409
lfemur -20.9012 6.25874 -9.04972
ltibia 44.8283 0 0
lfoot -21.6793 -0.71171 0
ltoes -6.71029 0 0
rfemur -21.3124 -5.83123 13.8197
rtibia 47.5352 0 0
rfoot -25.6427 1.31309 0
rtoes -6.30143 0 0
lowerback 8.80705 1.95743 -1.50071
upperback -3.33378 2.54097 1.1995
thorax -8.60714 1.35695 1.70549
lowerneck -2.35289 -3.87314 -6.63589
upperneck 5.03459 -5.2123 5.93897
head 2.41109 -2.58414 2.95858
lclavicle -2.19862e-15 1.08597e-15 0
lhumerus -26.5972 -4.16166 89.4398
lradius 24.918 0 0
lwrist -30.5362 0 0
lhand -28.7454 30.2757 0
lfingers 7.12502 0 0
lthumb -2.10585 60.245 0
rclavicle -2.19862e-15 1.08597e-15 0
rhumerus -32.4799 3.23362 -80.4912
rradius 30.7546 0 0
rwrist 2.42374 0 0
rhand -19.8588 -26.9984 0
rfingers 7.12502 0 0
rthumb 6.4762 -56.8812 0
103
root -2.86332 16.4956 -36.2216 2.58066 0.336646 -2.27348
lfemur -20.9606 6.26863 -9.04819
ltibia 44.8776 0 0
lfoot -21.71 -0.714255 0
ltoes -6.7232 0 0
rfemur -21.3556 -5.85482 13.8236
rtibia 47.565 0 0
rfoot -25.6652 1.31581 0
rtoes -6.3238 0 0
lowerback 8.7511 1.95486 -1.50553
upperback -3.35237 2.53787 1.20009
thorax -8.59476 1.35594 1.71079
lowerneck -2.3483 -3.87446 -6.63365
upperneck 5.06367 -5.21553 5.93867
head 2.42015 -2.58582 2.95804
lclavicle -2.20389e-15 1.61829e-15 0
lhumerus -26.5969 -4.13724 89.4269
lradius 24.9137 0 0
lwrist -30.5445 0 0
lhand -28.7372 30.2869 0
lfingers 7.12502 0 0
lthumb -2.09791 60.2563 0
rclavicle -2.20389e-15 1.61829e-15 0
rhumerus -32.4864 3.21891 -80.4904
rradius 30.7521 0 0
rwrist 2.42532 0 0
rhand -19.8407 -27.0087 0
rfingers 7.12502 0 0
rthumb 6.49368 -56.8911 0
104
root -2.86117 16.4938 -36.2191 2.61747 0.348327 -2.28353
lfemur -21.0199 6.27634 -9.04613
ltibia 44.9257 0 0
lfoot -21.7401 -0.713031 0
ltoes -6.74274 0 0
rfemur -21.3992 -5.87814 13.8281
rtibia 47.5935 0 0
rfoot -25.687 1.31972 0
rtoes -6.34766 0 0
lowerback 8.69432 1.95244 -1.51115
upperback -3.37134 2.5349 1.20086
thorax -8.58234 1.35504 1.71673
lowerneck -2.34495 -3.8757 -6.63136
upperneck 5.09393 -5.21865 5.93888
head 2.42985 -2.58742 2.95766
lclavicle -2.20299e-15 2.17235e-15 0
lhumerus -26.5966 -4.11184 89.414
lradius 24.9096 0 0
lwrist -30.5529 0 0
lhand -28.7286 30.2982 0
lfingers 7.12502 0 0
lthumb -2.0896 60.2676 0
rclavicle -2.20299e-15 2.17235e-15 0
rhumerus -32.4932 3.20268 -80.4894
rradius 30.7491 0 0
rwrist 2.42774 0 0
rhand -19.8237 -27.0193 0
rfingers 7.12502 0 0
rthumb 6.51008 -56.9012 0
105
root -2.85899 16.4919 -36.2166 2.65515 0.359527 -2.29425
lfemur -21.0793 6.28176 -9.0435
ltibia 44.9722 0 0
lfoot -21.7697 -0.707866 0
ltoes -6.76919 0 0
rfemur -21.4431 -5.90116 13.8334
rtibia 47.6203 0 0
rfoot -25.7081 1.32485 0
rtoes -6.37306 0 0
lowerback 8.63672 1.95019 -1.51762
upperback -3.39068 2.53208 1.20181
thorax -8.56991 1.35427 1.72331
lowerneck -2.34291 -3.87687 -6.62903
upperneck 5.1254 -5.22167 5.9396
head 2.4402 -2.58894 2.95743
lclavicle -2.19573e-15 2.74833e-15 0
lhumerus -26.5961 -4.08543 89.4012
lradius 24.9058 0 0
lwrist -30.5613 0 0
lhand -28.7196 30.3095 0
lfingers 7.12502 0 0
lthumb -2.08092 60.279 0
rclavicle -2.19573e-15 2.74833e-15 0
rhumerus -32.5001 3.18489 -80.4882
rradius 30.7453 0 0
rwrist 2.43106 0 0
rhand -19.8079 -27.0301 0
rfingers 7.12502 0 0
rthumb 6.52531 -56.9116 0
